<?xml version="1.0" encoding="UTF-8"?>
<svg version="1.1" xmlns="http://www.w3.org/2000/svg" width="3000" height="1000">
<path d="M0 0 C1.35756499 -0.00135136 2.71512951 -0.00329579 4.07269287 -0.00579834 C6.89649127 -0.00872347 9.72016192 -0.00453444 12.54394531 0.00488281 C16.14706619 0.01631999 19.7498904 0.00967456 23.35300064 -0.00226212 C26.14811409 -0.00951438 28.94315799 -0.00717814 31.73827362 -0.00200653 C33.70737402 -0.00004252 35.67647723 -0.00606693 37.64556885 -0.01226807 C43.71373533 0.01947271 48.88284966 0.23506706 54.609375 2.265625 C57.08289515 2.60183162 59.56307454 2.89148227 62.046875 3.140625 C78.04822591 4.9448092 93.6158934 9.47613713 107.91796875 16.87890625 C112.99967423 19.49720153 118.172071 21.49533998 123.609375 23.265625 C124.269375 23.595625 124.929375 23.925625 125.609375 24.265625 C125.609375 24.925625 125.609375 25.585625 125.609375 26.265625 C126.846875 26.3275 126.846875 26.3275 128.109375 26.390625 C132.25630657 27.42735789 134.59121439 29.24323195 137.875 31.890625 C139.57147274 33.33218005 139.57147274 33.33218005 141.609375 34.265625 C141.609375 34.925625 141.609375 35.585625 141.609375 36.265625 C142.599375 36.265625 143.589375 36.265625 144.609375 36.265625 C144.939375 36.925625 145.269375 37.585625 145.609375 38.265625 C147.63400755 38.91775792 147.63400755 38.91775792 149.609375 39.265625 C149.609375 39.925625 149.609375 40.585625 149.609375 41.265625 C150.269375 41.265625 150.929375 41.265625 151.609375 41.265625 C151.609375 41.925625 151.609375 42.585625 151.609375 43.265625 C152.2075 43.389375 152.805625 43.513125 153.421875 43.640625 C155.609375 44.265625 155.609375 44.265625 158.609375 46.265625 C158.609375 46.925625 158.609375 47.585625 158.609375 48.265625 C159.599375 48.595625 160.589375 48.925625 161.609375 49.265625 C161.609375 49.925625 161.609375 50.585625 161.609375 51.265625 C163.259375 51.925625 164.909375 52.585625 166.609375 53.265625 C166.609375 53.925625 166.609375 54.585625 166.609375 55.265625 C167.4446875 55.3584375 167.4446875 55.3584375 168.296875 55.453125 C171.57427109 56.60464255 173.2289518 58.7690836 175.609375 61.265625 C176.846875 62.255625 176.846875 62.255625 178.109375 63.265625 C183.49211802 67.57181942 188.41400483 72.78867201 192.609375 78.265625 C192.609375 78.925625 192.609375 79.585625 192.609375 80.265625 C193.599375 80.595625 194.589375 80.925625 195.609375 81.265625 C195.609375 82.255625 195.609375 83.245625 195.609375 84.265625 C196.269375 84.265625 196.929375 84.265625 197.609375 84.265625 C197.609375 84.925625 197.609375 85.585625 197.609375 86.265625 C198.269375 86.265625 198.929375 86.265625 199.609375 86.265625 C199.939375 87.585625 200.269375 88.905625 200.609375 90.265625 C201.269375 90.265625 201.929375 90.265625 202.609375 90.265625 C203.9765625 92.2421875 203.9765625 92.2421875 205.484375 94.890625 C207.23514212 97.9201387 208.98436781 100.8941861 210.984375 103.765625 C212.609375 106.265625 212.609375 106.265625 212.609375 108.265625 C213.269375 108.265625 213.929375 108.265625 214.609375 108.265625 C214.609375 109.255625 214.609375 110.245625 214.609375 111.265625 C215.269375 111.265625 215.929375 111.265625 216.609375 111.265625 C216.939375 112.255625 217.269375 113.245625 217.609375 114.265625 C218.269375 114.595625 218.929375 114.925625 219.609375 115.265625 C220.36189052 116.91738608 221.10536552 118.57424701 221.78857422 120.25585938 C223.13800417 123.55999602 224.66481287 126.78111315 226.171875 130.015625 C226.62723633 131.00369141 226.62723633 131.00369141 227.09179688 132.01171875 C228.44699822 134.92289201 229.82405903 137.58765104 231.609375 140.265625 C231.609375 141.585625 231.609375 142.905625 231.609375 144.265625 C232.269375 144.265625 232.929375 144.265625 233.609375 144.265625 C234.0115625 145.7815625 234.0115625 145.7815625 234.421875 147.328125 C235.50317974 151.12419482 237.00587289 154.65774526 238.609375 158.265625 C243.02416085 168.86454666 244.3067548 179.74804882 245.60717773 191.07543945 C245.72391846 192.08823975 245.84065918 193.10104004 245.9609375 194.14453125 C246.06229004 195.0579126 246.16364258 195.97129395 246.26806641 196.91235352 C246.55969806 199.41123592 246.55969806 199.41123592 247.609375 202.265625 C249.77617682 222.29478437 249.35239792 242.86758276 247.296875 262.890625 C247.12043457 264.62034546 247.12043457 264.62034546 246.94042969 266.38500977 C246.17166195 273.1441691 244.94924633 279.67049251 243.32226562 286.27563477 C242.21907848 290.9025981 241.40788159 295.57792159 240.609375 300.265625 C239.949375 300.265625 239.289375 300.265625 238.609375 300.265625 C238.485625 300.94625 238.361875 301.626875 238.234375 302.328125 C236.02564208 312.70916971 231.85097835 321.9749074 227.05078125 331.3828125 C225.801548 333.88127899 224.65059615 336.38820217 223.546875 338.953125 C221.54395337 343.56745079 219.12094107 347.91155759 216.609375 352.265625 C215.949375 352.265625 215.289375 352.265625 214.609375 352.265625 C214.609375 353.255625 214.609375 354.245625 214.609375 355.265625 C213.949375 355.265625 213.289375 355.265625 212.609375 355.265625 C212.279375 356.915625 211.949375 358.565625 211.609375 360.265625 C210.949375 360.265625 210.289375 360.265625 209.609375 360.265625 C209.609375 360.925625 209.609375 361.585625 209.609375 362.265625 C208.949375 362.265625 208.289375 362.265625 207.609375 362.265625 C207.485625 362.86375 207.361875 363.461875 207.234375 364.078125 C206.609375 366.265625 206.609375 366.265625 204.609375 369.265625 C203.949375 369.265625 203.289375 369.265625 202.609375 369.265625 C202.3 370.049375 201.990625 370.833125 201.671875 371.640625 C200.609375 374.265625 200.609375 374.265625 199.609375 376.265625 C198.949375 376.265625 198.289375 376.265625 197.609375 376.265625 C197.34125 377.02875 197.073125 377.791875 196.796875 378.578125 C195.65802995 381.15551118 194.79520829 382.53517364 192.609375 384.265625 C191.949375 384.265625 191.289375 384.265625 190.609375 384.265625 C190.609375 384.925625 190.609375 385.585625 190.609375 386.265625 C189.949375 386.265625 189.289375 386.265625 188.609375 386.265625 C188.5475 387.008125 188.485625 387.750625 188.421875 388.515625 C187.35787588 392.11685277 185.69566828 393.23318796 182.609375 395.265625 C181.949375 395.265625 181.289375 395.265625 180.609375 395.265625 C180.609375 396.255625 180.609375 397.245625 180.609375 398.265625 C179.949375 398.265625 179.289375 398.265625 178.609375 398.265625 C178.609375 398.925625 178.609375 399.585625 178.609375 400.265625 C177.949375 400.265625 177.289375 400.265625 176.609375 400.265625 C176.279375 401.255625 175.949375 402.245625 175.609375 403.265625 C173.89498752 404.82982647 172.1137573 406.32174502 170.296875 407.765625 C169.33136719 408.5390625 168.36585938 409.3125 167.37109375 410.109375 C166.45972656 410.8209375 165.54835938 411.5325 164.609375 412.265625 C163.50529297 413.14734375 163.50529297 413.14734375 162.37890625 414.046875 C160.609375 415.265625 160.609375 415.265625 158.609375 415.265625 C158.609375 415.925625 158.609375 416.585625 158.609375 417.265625 C154.22475962 420.265625 154.22475962 420.265625 151.609375 420.265625 C151.609375 420.925625 151.609375 421.585625 151.609375 422.265625 C150.949375 422.265625 150.289375 422.265625 149.609375 422.265625 C149.609375 422.925625 149.609375 423.585625 149.609375 424.265625 C148.36201933 424.9165509 147.11135668 425.56114169 145.859375 426.203125 C145.16328125 426.56277344 144.4671875 426.92242188 143.75 427.29296875 C141.70713067 428.22120682 139.79822124 428.79729078 137.609375 429.265625 C137.609375 429.925625 137.609375 430.585625 137.609375 431.265625 C131.984375 434.265625 131.984375 434.265625 128.609375 434.265625 C128.609375 434.925625 128.609375 435.585625 128.609375 436.265625 C127.34097974 436.77177798 126.06954398 437.27031599 124.796875 437.765625 C123.73533203 438.18328125 123.73533203 438.18328125 122.65234375 438.609375 C120.609375 439.265625 120.609375 439.265625 117.609375 439.265625 C117.609375 439.925625 117.609375 440.585625 117.609375 441.265625 C114.24253585 443.69723105 112.87587136 444.265625 108.609375 444.265625 C108.609375 444.925625 108.609375 445.585625 108.609375 446.265625 C106.88193484 446.91606219 105.1523381 447.56077344 103.421875 448.203125 C102.45894531 448.56277344 101.49601562 448.92242188 100.50390625 449.29296875 C97.8725472 450.17719062 95.34042592 450.79131086 92.609375 451.265625 C92.609375 451.925625 92.609375 452.585625 92.609375 453.265625 C85.8987952 455.87529492 79.25855988 457.11234987 72.17041016 458.17504883 C68.62529068 458.71629137 65.32040498 459.34909183 61.86328125 460.34765625 C58.92272478 461.177225 56.69720711 461.48371214 53.671875 461.390625 C52.89972656 461.37257813 52.12757813 461.35453125 51.33203125 461.3359375 C50.47931641 461.30113281 50.47931641 461.30113281 49.609375 461.265625 C49.609375 461.925625 49.609375 462.585625 49.609375 463.265625 C48.91070313 463.32621094 48.21203125 463.38679688 47.4921875 463.44921875 C46.12707031 463.57490234 46.12707031 463.57490234 44.734375 463.703125 C43.82945312 463.78433594 42.92453125 463.86554688 41.9921875 463.94921875 C39.59826639 464.13551785 39.59826639 464.13551785 37.609375 465.265625 C34.55869931 465.36493451 31.53131463 465.40542851 28.48046875 465.3984375 C27.57563248 465.39939423 26.6707962 465.40035095 25.73854065 465.40133667 C23.82447236 465.40201773 21.91040176 465.40016861 19.99633789 465.39599609 C17.05544896 465.39064061 14.11471233 465.39594678 11.17382812 465.40234375 C9.31770799 465.40168308 7.46158796 465.40040214 5.60546875 465.3984375 C4.27738441 465.40147385 4.27738441 465.40147385 2.92247009 465.40457153 C-3.27567092 465.38057908 -3.27567092 465.38057908 -4.390625 464.265625 C-6.21968735 464.05725081 -8.05450634 463.89812841 -9.890625 463.765625 C-15.27951389 463.37673611 -15.27951389 463.37673611 -16.390625 462.265625 C-19.05794907 461.89126373 -21.71437155 461.55992091 -24.390625 461.265625 C-32.25548986 460.40076014 -32.25548986 460.40076014 -33.390625 459.265625 C-36.96466892 458.60724849 -40.54234861 458.01888345 -44.1328125 457.45898438 C-45.26203125 457.27239258 -45.26203125 457.27239258 -46.4140625 457.08203125 C-47.10419434 456.97318604 -47.79432617 456.86434082 -48.50537109 456.75219727 C-50.390625 456.265625 -50.390625 456.265625 -53.390625 454.265625 C-55.3803245 453.87548784 -57.38082369 453.53359851 -59.390625 453.265625 C-59.390625 452.605625 -59.390625 451.945625 -59.390625 451.265625 C-60.710625 451.265625 -62.030625 451.265625 -63.390625 451.265625 C-63.390625 450.605625 -63.390625 449.945625 -63.390625 449.265625 C-66.030625 448.935625 -68.670625 448.605625 -71.390625 448.265625 C-71.390625 447.605625 -71.390625 446.945625 -71.390625 446.265625 C-72.710625 446.265625 -74.030625 446.265625 -75.390625 446.265625 C-75.390625 445.605625 -75.390625 444.945625 -75.390625 444.265625 C-76.31875 444.141875 -77.246875 444.018125 -78.203125 443.890625 C-81.390625 443.265625 -81.390625 443.265625 -84.390625 441.265625 C-84.390625 440.605625 -84.390625 439.945625 -84.390625 439.265625 C-85.1125 439.13929688 -85.834375 439.01296875 -86.578125 438.8828125 C-92.7204752 437.53490787 -99.30360876 434.99610358 -104.390625 431.265625 C-104.390625 430.605625 -104.390625 429.945625 -104.390625 429.265625 C-104.98875 429.12125 -105.586875 428.976875 -106.203125 428.828125 C-107.95212904 428.3783811 -109.67739523 427.83670159 -111.390625 427.265625 C-111.390625 426.605625 -111.390625 425.945625 -111.390625 425.265625 C-113.040625 424.935625 -114.690625 424.605625 -116.390625 424.265625 C-116.390625 423.605625 -116.390625 422.945625 -116.390625 422.265625 C-117.11894531 422.00910156 -117.84726562 421.75257813 -118.59765625 421.48828125 C-121.51866455 420.20957412 -123.61074966 418.70970019 -126.078125 416.703125 C-129.07838821 414.24090069 -129.07838821 414.24090069 -132.390625 412.265625 C-132.390625 411.605625 -132.390625 410.945625 -132.390625 410.265625 C-132.97328125 409.9975 -133.5559375 409.729375 -134.15625 409.453125 C-136.41849101 408.25081509 -138.19638818 406.92736587 -140.140625 405.265625 C-140.75421875 404.75 -141.3678125 404.234375 -142 403.703125 C-143.390625 402.265625 -143.390625 402.265625 -143.390625 400.265625 C-144.050625 400.265625 -144.710625 400.265625 -145.390625 400.265625 C-145.390625 399.605625 -145.390625 398.945625 -145.390625 398.265625 C-146.050625 398.265625 -146.710625 398.265625 -147.390625 398.265625 C-147.390625 397.275625 -147.390625 396.285625 -147.390625 395.265625 C-148.256875 394.9253125 -148.256875 394.9253125 -149.140625 394.578125 C-151.98802309 392.91714278 -153.51129693 390.95037939 -155.390625 388.265625 C-155.390625 387.605625 -155.390625 386.945625 -155.390625 386.265625 C-156.050625 386.265625 -156.710625 386.265625 -157.390625 386.265625 C-157.390625 385.605625 -157.390625 384.945625 -157.390625 384.265625 C-158.050625 384.265625 -158.710625 384.265625 -159.390625 384.265625 C-164.390625 378.78943452 -164.390625 378.78943452 -164.390625 376.265625 C-165.380625 375.935625 -166.370625 375.605625 -167.390625 375.265625 C-167.390625 374.275625 -167.390625 373.285625 -167.390625 372.265625 C-168.050625 372.265625 -168.710625 372.265625 -169.390625 372.265625 C-169.390625 371.605625 -169.390625 370.945625 -169.390625 370.265625 C-170.050625 370.265625 -170.710625 370.265625 -171.390625 370.265625 C-171.720625 368.945625 -172.050625 367.625625 -172.390625 366.265625 C-173.050625 366.265625 -173.710625 366.265625 -174.390625 366.265625 C-175.6796875 364.83984375 -175.6796875 364.83984375 -177.015625 362.953125 C-177.68464844 362.03080078 -177.68464844 362.03080078 -178.3671875 361.08984375 C-179.390625 359.265625 -179.390625 359.265625 -179.390625 356.265625 C-180.050625 356.265625 -180.710625 356.265625 -181.390625 356.265625 C-187.80124711 347.01301425 -196.390625 332.93210285 -196.390625 321.265625 C-197.050625 321.265625 -197.710625 321.265625 -198.390625 321.265625 C-198.65875 320.255 -198.926875 319.244375 -199.203125 318.203125 C-199.95127672 315.54422609 -200.86859349 313.08963475 -202.015625 310.578125 C-203.390625 307.265625 -203.390625 307.265625 -203.390625 303.265625 C-204.050625 303.265625 -204.710625 303.265625 -205.390625 303.265625 C-205.58978516 302.09193359 -205.58978516 302.09193359 -205.79296875 300.89453125 C-206.05787109 299.37666016 -206.05787109 299.37666016 -206.328125 297.828125 C-206.50214844 296.81878906 -206.67617188 295.80945313 -206.85546875 294.76953125 C-207.13813597 292.3368812 -207.13813597 292.3368812 -208.390625 291.265625 C-208.43126332 289.59945385 -208.433346 287.93174405 -208.390625 286.265625 C-209.050625 286.265625 -209.710625 286.265625 -210.390625 286.265625 C-213.62367887 264.62271685 -213.62367887 264.62271685 -214.1796875 255.25 C-214.18036122 253.2664216 -214.18036122 253.2664216 -215.390625 252.265625 C-215.50447614 249.46048609 -215.55482709 246.68100528 -215.55859375 243.875 C-215.56192215 243.01940491 -215.56525055 242.16380981 -215.56867981 241.2822876 C-215.57375881 239.45968158 -215.57608784 237.63706621 -215.57592773 235.81445312 C-215.57808322 233.06884527 -215.59614061 230.32365996 -215.61523438 227.578125 C-215.64672397 217.91880036 -215.14344288 208.78950601 -213.390625 199.265625 C-213.09361449 197.16718468 -212.80974727 195.06684203 -212.5390625 192.96484375 C-212.41015625 191.96904297 -212.28125 190.97324219 -212.1484375 189.94726562 C-212.02210938 188.95919922 -211.89578125 187.97113281 -211.765625 186.953125 C-211.6315625 185.91478516 -211.4975 184.87644531 -211.359375 183.80664062 C-211.03505312 181.29314607 -210.71214575 178.77947912 -210.390625 176.265625 C-209.730625 176.265625 -209.070625 176.265625 -208.390625 176.265625 C-207.66067941 172.66850572 -206.98087742 169.06502171 -206.328125 165.453125 C-206.15152344 164.47730469 -205.97492187 163.50148438 -205.79296875 162.49609375 C-205.66019531 161.76003906 -205.52742187 161.02398437 -205.390625 160.265625 C-204.730625 160.265625 -204.070625 160.265625 -203.390625 160.265625 C-203.2875 159.09 -203.184375 157.914375 -203.078125 156.703125 C-202.56655997 152.50680898 -201.13608215 149.12017621 -199.390625 145.265625 C-198.69921978 142.48673887 -198.69921978 142.48673887 -198.390625 140.265625 C-197.730625 140.265625 -197.070625 140.265625 -196.390625 140.265625 C-196.266875 139.729375 -196.143125 139.193125 -196.015625 138.640625 C-193.06619052 127.43277398 -187.17108217 117.23594374 -181.390625 107.265625 C-180.730625 107.265625 -180.070625 107.265625 -179.390625 107.265625 C-179.390625 106.275625 -179.390625 105.285625 -179.390625 104.265625 C-178.730625 103.935625 -178.070625 103.605625 -177.390625 103.265625 C-176.895625 101.780625 -176.895625 101.780625 -176.390625 100.265625 C-175.730625 100.265625 -175.070625 100.265625 -174.390625 100.265625 C-174.1225 99.54375 -173.854375 98.821875 -173.578125 98.078125 C-172.39161138 95.26796117 -171.11576861 92.78145943 -169.390625 90.265625 C-168.730625 90.265625 -168.070625 90.265625 -167.390625 90.265625 C-166.895625 88.285625 -166.895625 88.285625 -166.390625 86.265625 C-165.730625 86.265625 -165.070625 86.265625 -164.390625 86.265625 C-164.390625 85.605625 -164.390625 84.945625 -164.390625 84.265625 C-163.730625 84.265625 -163.070625 84.265625 -162.390625 84.265625 C-161.895625 82.285625 -161.895625 82.285625 -161.390625 80.265625 C-160.730625 80.265625 -160.070625 80.265625 -159.390625 80.265625 C-159.16375 79.729375 -158.936875 79.193125 -158.703125 78.640625 C-156.93492411 75.44102339 -154.85392297 72.97525277 -152.390625 70.265625 C-151.730625 70.265625 -151.070625 70.265625 -150.390625 70.265625 C-149.895625 68.780625 -149.895625 68.780625 -149.390625 67.265625 C-148.730625 67.265625 -148.070625 67.265625 -147.390625 67.265625 C-147.390625 66.605625 -147.390625 65.945625 -147.390625 65.265625 C-146.730625 65.265625 -146.070625 65.265625 -145.390625 65.265625 C-145.390625 64.605625 -145.390625 63.945625 -145.390625 63.265625 C-144.730625 63.265625 -144.070625 63.265625 -143.390625 63.265625 C-143.060625 62.275625 -142.730625 61.285625 -142.390625 60.265625 C-140.41741447 58.8929568 -138.41519348 57.56134883 -136.390625 56.265625 C-135.813125 55.688125 -135.235625 55.110625 -134.640625 54.515625 C-134.228125 54.103125 -133.815625 53.690625 -133.390625 53.265625 C-132.730625 53.265625 -132.070625 53.265625 -131.390625 53.265625 C-131.390625 52.605625 -131.390625 51.945625 -131.390625 51.265625 C-127.92908654 48.265625 -127.92908654 48.265625 -125.390625 48.265625 C-125.390625 47.605625 -125.390625 46.945625 -125.390625 46.265625 C-122.8291593 43.96913851 -121.91094928 43.265625 -118.390625 43.265625 C-118.390625 42.605625 -118.390625 41.945625 -118.390625 41.265625 C-117.730625 41.265625 -117.070625 41.265625 -116.390625 41.265625 C-116.390625 40.605625 -116.390625 39.945625 -116.390625 39.265625 C-115.75125 39.141875 -115.111875 39.018125 -114.453125 38.890625 C-113.7725 38.684375 -113.091875 38.478125 -112.390625 38.265625 C-111.895625 37.275625 -111.895625 37.275625 -111.390625 36.265625 C-110.400625 36.265625 -109.410625 36.265625 -108.390625 36.265625 C-108.390625 35.605625 -108.390625 34.945625 -108.390625 34.265625 C-105.8291593 31.96913851 -104.91094928 31.265625 -101.390625 31.265625 C-101.390625 30.605625 -101.390625 29.945625 -101.390625 29.265625 C-92.93513814 24.5242305 -84.51226 20.35403851 -75.40234375 17.04296875 C-73.28704753 16.22560186 -71.25670948 15.2894569 -69.203125 14.328125 C-64.28757278 12.08987005 -59.19516916 10.60236179 -54.015625 9.09765625 C-51.49046679 8.51893512 -51.49046679 8.51893512 -50.390625 7.265625 C-49.359375 7.12125 -48.328125 6.976875 -47.265625 6.828125 C-43.45975561 6.36551446 -43.45975561 6.36551446 -40.140625 5.328125 C-35.27458649 3.94941409 -30.36866955 3.13137188 -25.390625 2.265625 C-24.65928345 2.10620422 -23.92794189 1.94678345 -23.17443848 1.78253174 C-15.41391904 0.17596614 -7.9065381 -0.02505738 0 0 Z " fill="#FFFFFF" transform="translate(867.390625,262.734375)"/>
<path d="M0 0 C9.25618326 0.39671401 18.46711323 0.38058526 27.72679138 0.21838379 C28.81729105 0.19960678 28.81729105 0.19960678 29.92982101 0.18045044 C35.12668168 0.08867873 40.32322311 -0.01699316 45.51976013 -0.12536621 C51.4636243 -0.24878772 57.40753283 -0.3662444 63.35179138 -0.46911621 C64.06416899 -0.48162666 64.77654659 -0.49413712 65.5105114 -0.50702667 C76.43649295 -0.68830947 87.30145544 -0.46997554 98.21263123 0.16271973 C102.00245025 0.37431754 105.72662492 0.32831501 109.51976013 0.12463379 C115.76291474 0.03331105 121.35230375 1.67583986 127.26707458 3.50842285 C130.84557346 4.61690328 134.22965607 5.51660948 137.96116638 5.92150879 C141.21153688 6.31467144 143.40021355 6.84905435 146.33226013 8.18713379 C151.59669166 10.43982077 156.97362977 11.90326103 162.50804138 13.34729004 C165.64352631 14.35416737 167.94472873 15.61103374 170.70726013 17.37463379 C172.61532326 18.34998449 174.53251566 19.30762922 176.45726013 20.24963379 C184.16076164 24.08717144 184.16076164 24.08717144 187.64476013 25.93713379 C188.31378357 26.28904785 188.98280701 26.64096191 189.67210388 27.00354004 C191.70726013 28.37463379 191.70726013 28.37463379 194.03538513 30.78869629 C196.9951259 33.65324072 199.87804784 35.2799526 203.51976013 37.18713379 C208.80419321 40.05511912 212.87543737 43.06734915 216.95335388 47.55041504 C218.74524489 49.41414132 220.5711566 50.80149998 222.70726013 52.24963379 C223.69726013 52.95088379 224.68726013 53.65213379 225.70726013 54.37463379 C225.70726013 55.03463379 225.70726013 55.69463379 225.70726013 56.37463379 C226.28476013 56.61697754 226.86226013 56.85932129 227.45726013 57.10900879 C233.60339603 60.56621023 237.99148518 67.55325303 241.70726013 73.37463379 C242.64019594 74.54416874 243.57530492 75.71197172 244.51194763 76.87854004 C248.10762658 81.64828492 250.37426478 86.77838339 252.70726013 92.24963379 C255.54876979 98.85843527 258.61411931 105.00494498 262.40013123 111.12463379 C264.04662024 113.95878447 265.09112139 116.79939849 266.01976013 119.93713379 C266.85221839 123.44169818 266.85221839 123.44169818 268.70726013 126.37463379 C268.77952515 128.2275088 268.79107233 130.08297256 268.76976013 131.93713379 C268.76073669 132.94904785 268.75171326 133.96096191 268.74241638 135.00354004 C268.72501404 136.17723145 268.72501404 136.17723145 268.70726013 137.37463379 C269.36726013 137.37463379 270.02726013 137.37463379 270.70726013 137.37463379 C270.7325794 144.29804709 270.75011402 151.22144848 270.76219177 158.14489746 C270.76722588 160.50102179 270.77405359 162.85714299 270.78269958 165.21325684 C270.79480543 168.59648409 270.80049762 171.97967011 270.80491638 175.36291504 C270.81007767 176.41924637 270.81523895 177.4755777 270.82055664 178.56391907 C270.82066994 180.03510445 270.82066994 180.03510445 270.82078552 181.53601074 C270.82300613 182.39982864 270.82522675 183.26364655 270.82751465 184.15364075 C270.70726013 186.37463379 270.70726013 186.37463379 269.70726013 189.37463379 C269.43181123 193.02105258 269.26169522 196.6674526 269.08616638 200.31994629 C268.82131095 203.96728198 268.11346255 207.40991862 267.27146912 210.96398926 C266.67100584 213.5295342 266.14546546 216.10339362 265.62913513 218.68713379 C263.18401207 230.6616453 260.15424752 241.99231705 255.70726013 253.37463379 C255.33472107 254.35947754 254.96218201 255.34432129 254.57835388 256.35900879 C251.91666189 263.24809393 248.90522429 270.26850411 244.70726013 276.37463379 C244.04726013 276.37463379 243.38726013 276.37463379 242.70726013 276.37463379 C242.52163513 277.17900879 242.33601013 277.98338379 242.14476013 278.81213379 C240.45582535 282.99775478 238.10585028 285.94974604 235.26585388 289.42150879 C233.66105366 291.29343395 233.66105366 291.29343395 232.70726013 293.37463379 C232.04726013 293.37463379 231.38726013 293.37463379 230.70726013 293.37463379 C230.70726013 294.03463379 230.70726013 294.69463379 230.70726013 295.37463379 C230.04726013 295.37463379 229.38726013 295.37463379 228.70726013 295.37463379 C228.70726013 296.03463379 228.70726013 296.69463379 228.70726013 297.37463379 C228.04726013 297.37463379 227.38726013 297.37463379 226.70726013 297.37463379 C226.52163513 297.95213379 226.33601013 298.52963379 226.14476013 299.12463379 C224.40600013 301.84617119 222.4081778 302.72306196 219.59788513 304.19104004 C217.56257116 305.46521387 216.33249895 306.81103426 214.76976013 308.62463379 C209.81531178 313.83515475 203.15531487 316.35377377 196.75413513 319.3795166 C192.60540412 321.39648077 188.60108292 323.6806808 184.57444763 325.92932129 C181.67351526 327.39164415 178.81028048 328.42623291 175.70726013 329.37463379 C176.14038513 330.20994629 176.14038513 330.20994629 176.58226013 331.06213379 C177.74858543 333.45958024 178.74124823 335.89060318 179.70726013 338.37463379 C180.36726013 338.37463379 181.02726013 338.37463379 181.70726013 338.37463379 C182.15456482 339.29244629 182.60186951 340.21025879 183.06272888 341.15588379 C186.78588088 348.87930972 186.78588088 348.87930972 191.14476013 356.24963379 C193.59879707 360.00286675 195.54713138 363.98033787 197.51976013 367.99963379 C204.14201269 381.45191423 211.89628445 394.20471293 219.91819763 406.86682129 C220.28042419 407.44359619 220.64265076 408.02037109 221.01585388 408.61462402 C222.02023052 410.2133948 223.0314914 411.80783485 224.04319763 413.40197754 C225.68999073 416.34378398 226.75519497 419.14819074 227.70726013 422.37463379 C228.36726013 422.37463379 229.02726013 422.37463379 229.70726013 422.37463379 C230.05788513 423.42650879 230.40851013 424.47838379 230.76976013 425.56213379 C233.1121342 431.8158306 236.48257135 437.54406644 239.70726013 443.37463379 C240.74911618 445.31203196 241.7907955 447.24952518 242.83226013 449.18713379 C244.62263492 452.50246392 246.53015064 455.63306056 248.64476013 458.74963379 C250.3245978 461.36867782 250.72186664 462.03868409 250.58226013 465.24963379 C249.70726013 467.37463379 249.70726013 467.37463379 248.70726013 469.37463379 C245.87801139 470.35268097 243.24311484 470.50015179 240.26745605 470.50161743 C238.94163765 470.50584717 238.94163765 470.50584717 237.58903503 470.51016235 C236.62652832 470.50813812 235.66402161 470.50611389 234.67234802 470.50402832 C233.65211044 470.50578064 232.63187286 470.50753296 231.58071899 470.50933838 C228.19710094 470.51374888 224.81353501 470.51081798 221.42991638 470.50744629 C219.06455475 470.50812044 216.69919318 470.50909139 214.33383179 470.51034546 C209.3613774 470.51182207 204.38894095 470.50967229 199.41648865 470.50500488 C193.10068582 470.49936046 186.78492598 470.50255287 180.46912479 470.50857735 C175.57260833 470.51222941 170.67610168 470.5110224 165.77958488 470.50844955 C163.45521985 470.50779028 161.13085388 470.50857302 158.80648994 470.51092911 C147.49841731 470.51986162 136.19112938 470.46252564 124.88865662 470.08044434 C124.02229867 470.06204813 123.15594072 470.04365192 122.26332951 470.02469826 C117.57617253 469.82877691 114.67560826 469.50336733 111.26976013 465.94885254 C109.90257263 463.75500488 109.90257263 463.75500488 108.70726013 461.37463379 C108.20968201 460.57750977 107.71210388 459.78038574 107.19944763 458.95910645 C105.61542474 456.40944648 104.15439319 453.81662779 102.70726013 451.18713379 C101.92971375 449.80219727 101.92971375 449.80219727 101.13645935 448.38928223 C97.74735288 442.33147955 94.47352302 436.21640746 91.21897888 430.08557129 C89.38764657 426.80147665 87.32586807 423.73386215 85.18772888 420.64416504 C82.88465744 417.11359906 80.95707959 413.39243388 79.00413513 409.65979004 C77.78424195 407.27430715 77.78424195 407.27430715 75.70726013 405.37463379 C75.70726013 404.38463379 75.70726013 403.39463379 75.70726013 402.37463379 C74.71726013 402.04463379 73.72726013 401.71463379 72.70726013 401.37463379 C71.10179138 398.97619629 71.10179138 398.97619629 69.51976013 395.99963379 C68.98995544 395.02252441 68.46015076 394.04541504 67.91429138 393.03869629 C66.70726013 390.37463379 66.70726013 390.37463379 66.70726013 387.37463379 C66.04726013 387.37463379 65.38726013 387.37463379 64.70726013 387.37463379 C63.16338219 384.45913254 61.62218382 381.54222552 60.08226013 378.62463379 C59.62367615 377.75588623 59.16509216 376.88713867 58.69261169 375.99206543 C56.21945338 371.2931519 53.79435502 366.58005731 51.45726013 361.81213379 C49.16115867 357.14776767 46.5827633 352.73120034 43.80882263 348.33557129 C42.70726013 346.37463379 42.70726013 346.37463379 42.70726013 344.37463379 C33.90075972 344.35135335 25.09427007 344.33363926 16.28774548 344.32282162 C12.1975107 344.3176269 8.10729715 344.310592 4.01707458 344.29919434 C0.06187039 344.28824323 -3.89331353 344.28233133 -7.84853172 344.27975655 C-9.34942125 344.27792415 -10.85030979 344.27434647 -12.35119057 344.26890373 C-20.71488989 344.23980981 -28.97604207 344.40027269 -37.29273987 345.37463379 C-37.29051926 346.46726028 -37.28829865 347.55988678 -37.28601074 348.68562317 C-37.26551472 359.11095711 -37.2506427 369.53628684 -37.2409277 379.96163654 C-37.23576485 385.31814238 -37.22879127 390.67463163 -37.21730042 396.03112793 C-37.19058123 408.96030223 -37.19554433 421.88870828 -37.27707672 434.81769562 C-37.28718826 436.46835812 -37.29601455 438.11902923 -37.30327606 439.76970673 C-37.32425103 444.40358686 -37.38778951 449.03452732 -37.48414612 453.66760254 C-37.49235634 455.28702507 -37.49235634 455.28702507 -37.50073242 456.93916321 C-37.70480133 463.7578081 -37.70480133 463.7578081 -40.32008362 466.50158691 C-44.12238187 467.61829343 -47.72936796 467.94481725 -51.66383362 468.05041504 C-52.99867043 468.0996386 -52.99867043 468.0996386 -54.36047363 468.14985657 C-68.94125345 468.61137799 -83.54142489 468.56155716 -98.12794495 468.55993652 C-102.52694827 468.55983343 -106.92579548 468.57367587 -111.32476139 468.59070873 C-114.73821757 468.60180161 -118.15163499 468.60385685 -121.56510735 468.6033268 C-123.18901055 468.60450365 -124.81291486 468.60890885 -126.4368 468.61665916 C-128.68975868 468.62643825 -130.94236361 468.62359349 -133.19532776 468.61755371 C-134.47323685 468.61897873 -135.75114594 468.62040375 -137.06777954 468.62187195 C-140.10770289 468.38881945 -141.80266073 468.08166533 -144.29273987 466.37463379 C-145.8613963 463.23732092 -145.43466832 459.88819182 -145.42555237 456.44494629 C-145.42650909 455.65820526 -145.42746582 454.87146423 -145.42845154 454.06088257 C-145.42913261 452.39479492 -145.42728339 450.72870463 -145.42311096 449.06262207 C-145.4177759 446.51682533 -145.42305101 443.97120617 -145.42945862 441.42541504 C-145.42879754 439.80692507 -145.42751578 438.18843521 -145.42555237 436.56994629 C-145.4275766 435.80940948 -145.42960083 435.04887268 -145.4316864 434.26528931 C-145.41629161 430.77824714 -145.13508448 427.73658158 -144.29273987 424.37463379 C-144.19100187 421.61738138 -144.14228881 418.88500857 -144.14125061 416.12760925 C-144.13701979 415.28572593 -144.13278897 414.44384261 -144.12842995 413.57644767 C-144.11537656 410.74053856 -144.10937082 407.90465759 -144.10328674 405.06872559 C-144.09531103 403.02658991 -144.08689654 400.9844559 -144.07807827 398.94232368 C-144.05509343 393.33582432 -144.03819253 387.72932041 -144.02223468 382.12279725 C-144.00408063 376.12662561 -143.9802299 370.13047662 -143.9569397 364.13432312 C-143.91757393 353.82484795 -143.88149293 343.51536566 -143.84745789 333.20587158 C-143.79631808 317.74869191 -143.7369703 302.29154993 -143.67554606 286.8344081 C-143.65400545 281.40895545 -143.63263084 275.98350214 -143.61123169 270.55804893 C-143.60586352 269.19724462 -143.60049248 267.83644032 -143.59511857 266.47563604 C-143.53561917 251.4056669 -143.47815809 236.3356902 -143.42107962 221.26571172 C-143.41079375 218.55140076 -143.40048534 215.83708988 -143.39017676 213.122779 C-143.34340771 200.80685801 -143.29683078 188.49093635 -143.25097215 176.17501193 C-143.15546417 150.53908712 -143.05551302 124.9032008 -142.93603706 99.26737499 C-142.88513732 88.29585267 -142.84039232 77.32434219 -142.80396086 66.35276204 C-142.77879925 58.92807872 -142.74656891 51.50344861 -142.70847696 44.07882041 C-142.686953 39.84194021 -142.66863276 35.6051103 -142.65896797 31.36818504 C-142.65015502 27.53092836 -142.6323484 23.69382702 -142.60709476 19.85664427 C-142.5996026 18.47127822 -142.59550419 17.085889 -142.59505939 15.70050275 C-142.59398446 13.82963511 -142.57961965 11.9587889 -142.56448364 10.08798218 C-142.5602517 9.04906263 -142.55601976 8.01014309 -142.55165958 6.93974113 C-142.29273987 4.37463379 -142.29273987 4.37463379 -140.29273987 1.37463379 C-136.63704959 0.15607036 -133.29384637 0.25080254 -129.48951721 0.27697754 C-128.69352615 0.27843781 -127.8975351 0.27989807 -127.0774231 0.28140259 C-125.34232848 0.28521358 -123.60723779 0.29133537 -121.87215805 0.29946899 C-119.09043862 0.31231031 -116.30876749 0.31877239 -113.52702332 0.3236084 C-106.58922381 0.33694711 -99.65146763 0.36064107 -92.71369934 0.38500977 C-85.95619767 0.40841017 -79.19871103 0.42622427 -72.44117737 0.43713379 C-71.48834618 0.43898682 -70.53551498 0.44083984 -69.55381012 0.44274902 C-56.58120302 0.46146598 -43.64460766 0.22734988 -30.68216133 -0.26472473 C-20.41181877 -0.64536565 -10.26277779 -0.4719047 0 0 Z " fill="#FFFFFF" transform="translate(2729.292739868164,271.6253662109375)"/>
<path d="M0 0 C1.03887863 -0.00426498 2.07775726 -0.00852997 3.14811707 -0.01292419 C4.29256287 -0.01247101 5.43700867 -0.01201782 6.61613464 -0.0115509 C8.41868965 -0.01658882 8.41868965 -0.01658882 10.25765991 -0.02172852 C13.55944405 -0.02961689 16.86116531 -0.03290707 20.16295457 -0.0335443 C22.91881545 -0.03449307 25.67467027 -0.03817114 28.43052882 -0.0417164 C34.93380679 -0.04986518 41.43707091 -0.05230031 47.94035339 -0.05158997 C54.6477129 -0.05098957 61.35499188 -0.06153267 68.06233102 -0.07733363 C73.82036747 -0.09041466 79.57837763 -0.0957736 85.33642882 -0.09513456 C88.77558227 -0.09487966 92.21466423 -0.09772585 95.65380287 -0.10831261 C99.49153911 -0.1198031 103.32916525 -0.11524329 107.16691589 -0.10920715 C108.87447556 -0.11763641 108.87447556 -0.11763641 110.61653137 -0.12623596 C112.18753853 -0.11994423 112.18753853 -0.11994423 113.7902832 -0.11352539 C114.69749524 -0.11407016 115.60470728 -0.11461493 116.53941059 -0.1151762 C120.16596477 0.23931561 123.11874592 1.03962174 125.56999207 3.81340027 C129.95474442 11.41905096 133.44393685 19.40185264 136.98796082 27.42277527 C139.1959046 32.41235746 141.58202158 37.28649596 144.08561707 42.13371277 C148.78251476 51.28351348 153.10045761 60.5513485 157.30729675 69.93595886 C160.38746335 76.74691548 163.73832455 83.3266401 167.39421082 89.84465027 C168.96070459 92.89081138 170.15136617 95.86942127 171.31047058 99.08049011 C172.62519549 102.56295828 174.23203385 105.90177402 175.83561707 109.25871277 C176.18704773 109.99879578 176.53847839 110.73887878 176.90055847 111.50138855 C181.33734037 120.80883323 185.94858578 130.01245076 190.78385925 139.11857605 C204.08561707 164.18036506 204.08561707 164.18036506 204.08561707 169.13371277 C204.74561707 169.13371277 205.40561707 169.13371277 206.08561707 169.13371277 C206.44913269 169.99351746 206.81264832 170.85332214 207.18717957 171.73918152 C210.16986414 178.75231423 213.24153275 185.70505048 216.46842957 192.61027527 C217.63804502 195.15856788 218.77758059 197.70934404 219.89030457 200.28215027 C224.11918427 210.03464056 228.75514498 219.4660448 233.78874207 228.82902527 C236.83485424 234.50604462 239.8257542 240.15309734 242.08561707 246.19621277 C244.02374494 251.14752383 246.46727618 255.46788412 249.22624207 260.01261902 C252.08561707 264.83529728 252.08561707 264.83529728 252.08561707 268.13371277 C252.74561707 268.13371277 253.40561707 268.13371277 254.08561707 268.13371277 C256.11997237 271.86336416 257.08561707 273.80276319 257.08561707 278.13371277 C257.74561707 278.13371277 258.40561707 278.13371277 259.08561707 278.13371277 C259.08561707 278.79371277 259.08561707 279.45371277 259.08561707 280.13371277 C259.74561707 280.13371277 260.40561707 280.13371277 261.08561707 280.13371277 C261.20026306 279.58368591 261.31490906 279.03365906 261.43302917 278.46696472 C262.19618099 275.73840434 263.30126089 273.35691962 264.52702332 270.80168152 C265.02444031 269.76277771 265.5218573 268.7238739 266.03434753 267.65348816 C266.56689148 266.55383728 267.09943542 265.4541864 267.64811707 264.32121277 C268.19097351 263.19642517 268.73382996 262.07163757 269.2931366 260.9127655 C274.15047808 250.9023244 279.01537446 240.88864877 285.02311707 231.50871277 C290.57474952 222.46834953 294.2488828 212.16179122 298.20988464 202.34831238 C301.66509503 193.86500265 305.61772454 185.66600129 309.64811707 177.44621277 C310.96397554 174.75580654 312.27772322 172.06438133 313.58952332 169.37199402 C313.90142105 168.73218597 314.21331879 168.09237793 314.53466797 167.43318176 C316.5295783 163.32463839 318.43282441 159.18707302 320.25968933 155.00163269 C321.51223192 152.1688797 322.8853963 149.40230137 324.27311707 146.63371277 C324.56210876 146.05548767 324.85110046 145.47726257 325.14884949 144.8815155 C326.87144645 141.45941027 328.64756329 138.07098493 330.46842957 134.70011902 C330.87166443 133.95117371 331.27489929 133.20222839 331.69035339 132.43058777 C332.47556008 130.97794746 333.26675156 129.52852074 334.06486511 128.08293152 C336.36724951 123.82578861 337.92670355 119.83681684 339.08561707 115.13371277 C340.07561707 115.13371277 341.06561707 115.13371277 342.08561707 115.13371277 C342.18874207 114.20558777 342.29186707 113.27746277 342.39811707 112.32121277 C343.14121314 108.87594915 343.62726685 108.40295912 346.08561707 106.13371277 C347.9507806 102.86967658 349.29028836 99.61586543 350.42155457 96.04777527 C352.09844911 90.96243271 354.09912633 86.05238507 356.21061707 81.13371277 C356.79830872 79.7623114 356.79830872 79.7623114 357.39787292 78.36320496 C360.23415805 71.85147028 363.36951058 65.57281241 366.7618866 59.33610535 C369.53098202 54.23626317 372.11029404 49.06995499 374.58561707 43.82121277 C374.92407654 43.109328 375.26253601 42.39744324 375.61125183 41.66398621 C377.08330609 38.51334044 378.31629181 35.52181002 379.08561707 32.13371277 C379.74561707 32.13371277 380.40561707 32.13371277 381.08561707 32.13371277 C381.18874207 30.87558777 381.29186707 29.61746277 381.39811707 28.32121277 C381.69652939 24.68058244 382.55144591 23.656042 385.08561707 21.13371277 C386.29459398 18.87564683 387.4309922 16.63380533 388.52311707 14.32121277 C390.72381436 9.68738499 392.99156588 5.24886235 396.08561707 1.13371277 C399.07400602 0.13758312 401.0508816 0.00341512 404.17167664 -0.00672913 C405.22323441 -0.01243927 406.27479218 -0.01814941 407.35821533 -0.02403259 C408.51155869 -0.02515045 409.66490204 -0.02626831 410.85319519 -0.02742004 C412.67541847 -0.0348674 412.67541847 -0.0348674 414.53445435 -0.04246521 C417.86703254 -0.05457284 421.19954801 -0.06203122 424.53214073 -0.06647587 C426.61349127 -0.06940748 428.69483631 -0.07351236 430.77618408 -0.07798004 C437.28646109 -0.09164913 443.79672553 -0.10131974 450.3070159 -0.10518193 C457.82616219 -0.10966711 465.34512711 -0.1272386 472.86421824 -0.15618253 C478.67489703 -0.17777541 484.48552469 -0.18788486 490.29624319 -0.18922305 C493.76777717 -0.19027243 497.23914052 -0.19620868 500.71063232 -0.21404266 C504.57982794 -0.23353414 508.44879529 -0.22924397 512.31803894 -0.22273254 C513.47138229 -0.23194733 514.62472565 -0.24116211 515.8130188 -0.25065613 C517.39035545 -0.2423024 517.39035545 -0.2423024 518.9995575 -0.23377991 C519.91468864 -0.23524647 520.82981979 -0.23671303 521.77268219 -0.23822403 C524.56928278 0.21148974 525.4349071 0.8612928 527.08561707 3.13371277 C527.92113582 6.96317374 528.65204514 10.43124641 527.08561707 14.13371277 C526.42561707 14.46371277 525.76561707 14.79371277 525.08561707 15.13371277 C523.73464536 17.53146388 522.48328844 19.91592338 521.27311707 22.38371277 C520.73690735 23.46483337 520.73690735 23.46483337 520.18986511 24.5677948 C517.53764416 30.00164255 515.31504229 35.52815677 513.21842957 41.20011902 C511.48794879 45.68146751 509.29860339 49.8756632 507.08561707 54.13371277 C502.1956745 63.75212485 497.48117323 73.4374512 492.96208191 83.23527527 C491.4275346 86.55913039 489.88163424 89.87768134 488.33561707 93.19621277 C487.78389832 94.38343933 487.23217957 95.57066589 486.66374207 96.79386902 C484.18397188 102.0418975 481.5544116 107.08338636 478.58561707 112.07121277 C473.78059538 120.31588233 469.79468523 128.94321502 465.72624207 137.56730652 C463.66271117 141.93950408 461.53005307 146.26343948 459.33561707 150.57121277 C456.61978241 155.90672054 454.05817401 161.30850352 451.53874207 166.73918152 C451.21673828 167.43198715 450.8947345 168.12479279 450.56297302 168.83859253 C448.93886454 172.33484122 447.3216937 175.83403247 445.71549988 179.33854675 C442.09525062 187.18101743 438.17873142 194.70878102 433.77336121 202.14103699 C431.8742272 205.50854525 430.48354787 208.89503166 429.14030457 212.50871277 C426.84604004 218.21888227 423.88157146 223.65592456 421.08561707 229.13371277 C420.25030138 230.79938678 419.41675525 232.46595033 418.58561707 234.13371277 C418.18858582 234.92648621 417.79155457 235.71925964 417.38249207 236.53605652 C416.43051065 238.44288677 415.4832743 240.35208791 414.53874207 242.26261902 C411.3315476 248.72849961 408.04302425 255.13927547 404.64811707 261.50871277 C398.16146608 273.70888052 392.0979851 286.0035775 386.51139832 298.64299011 C384.08122094 304.08280068 381.44415445 309.34538111 378.58561707 314.57121277 C375.16046484 320.84381668 372.22733467 327.2323892 369.46061707 333.82121277 C364.64660252 345.28482364 359.25452794 356.25450486 353.0065155 367.00846863 C349.77479759 372.59447566 346.9101853 378.33459923 344.08561707 384.13371277 C343.08774642 386.13477603 342.08765632 388.1347337 341.08561707 390.13371277 C340.56483582 391.17527527 340.04405457 392.21683777 339.50749207 393.28996277 C338.95577332 394.39340027 338.40405457 395.49683777 337.83561707 396.63371277 C337.5347821 397.23755798 337.23394714 397.8414032 336.92399597 398.46354675 C335.38395407 401.55203079 333.83266706 404.63339887 332.24967957 407.70011902 C329.42306013 413.22375307 326.7956162 418.68389069 324.64811707 424.50871277 C320.8080349 434.87566726 315.57113409 444.66035625 310.10124207 454.25090027 C309.11694364 456.07563812 308.3041064 457.90197303 307.52311707 459.82121277 C303.90798437 468.15173593 303.90798437 468.15173593 299.9896698 470.2631073 C296.17555132 471.40654122 292.44700084 471.59878541 288.49577332 471.75090027 C287.66223831 471.78843414 286.82870331 471.82596802 285.96990967 471.86463928 C277.64085993 472.20956805 269.31370017 472.28565416 260.97843933 472.26408386 C258.5199622 472.25870587 256.06166702 472.26408582 253.60319519 472.27043152 C245.45566615 472.27508962 237.32215152 472.13907345 229.18327332 471.75090027 C228.44169479 471.7205368 227.70011627 471.69017334 226.93606567 471.65888977 C222.96277514 471.44117286 219.5906039 471.08305942 216.08561707 469.13371277 C214.73942566 467.4571991 214.73942566 467.4571991 213.73405457 465.46574402 C213.35764832 464.73677917 212.98124207 464.00781433 212.59342957 463.25675964 C212.21960144 462.49427917 211.84577332 461.73179871 211.46061707 460.94621277 C211.07905457 460.20306824 210.69749207 459.45992371 210.30436707 458.69425964 C208.04365979 454.24690275 206.02724867 449.73033787 204.08561707 445.13371277 C203.09393049 443.00482039 202.09337555 440.88004439 201.08561707 438.75871277 C198.75008004 433.82597566 196.51987076 428.85660577 194.35905457 423.84465027 C193.88081238 422.73911804 193.40257019 421.63358582 192.90983582 420.49455261 C191.96014271 418.29214774 191.01717819 416.08682646 190.08171082 413.87834167 C187.56751562 408.05834417 184.87453085 403.20065881 181.08561707 398.13371277 C179.86296082 395.47355652 179.86296082 395.47355652 179.02311707 393.07121277 C177.48593356 388.98230464 175.56830803 385.74489963 173.08561707 382.13371277 C170.43348301 377.28700133 168.12445184 372.35436451 166.14811707 367.19621277 C164.30153553 362.42524904 161.95921435 358.03342193 159.45280457 353.57902527 C156.08561707 347.55656991 156.08561707 347.55656991 156.08561707 344.13371277 C155.42561707 344.13371277 154.76561707 344.13371277 154.08561707 344.13371277 C153.68729675 343.26488464 153.28897644 342.39605652 152.87858582 341.50090027 C152.34878113 340.34847839 151.81897644 339.19605652 151.27311707 338.00871277 C150.75104675 336.87175964 150.22897644 335.73480652 149.69108582 334.56340027 C148.65562798 332.35140032 147.5899054 330.15319751 146.48796082 327.97355652 C145.31725669 325.60279913 144.3584218 323.3015117 143.46061707 320.82121277 C141.62334194 316.13755307 139.35706707 311.79581547 136.96061707 307.38371277 C133.20243341 300.44271551 129.7917891 293.38049372 126.52311707 286.19621277 C126.08145203 285.23038269 125.63978699 284.26455261 125.18473816 283.26945496 C122.08561707 276.39100806 122.08561707 276.39100806 122.08561707 274.13371277 C121.42561707 274.13371277 120.76561707 274.13371277 120.08561707 274.13371277 C119.86647644 273.52785339 119.64733582 272.92199402 119.42155457 272.29777527 C117.29899332 266.68938174 114.75465169 261.72359227 111.59733582 256.63371277 C107.76915028 250.3028633 104.85221777 243.66850806 102.19108582 236.78215027 C100.50309344 232.73812613 98.47853441 228.8766113 96.45280457 224.99308777 C95.06573373 222.09212819 94.03868824 219.20169427 93.08561707 216.13371277 C92.42561707 216.13371277 91.76561707 216.13371277 91.08561707 216.13371277 C90.68729675 215.25328308 90.28897644 214.37285339 89.87858582 213.46574402 C89.34878113 212.30429871 88.81897644 211.14285339 88.27311707 209.94621277 C87.75104675 208.79765808 87.22897644 207.64910339 86.69108582 206.46574402 C85.18165312 203.20215082 85.18165312 203.20215082 83.50749207 200.50871277 C82.09864687 198.15547684 81.11289977 195.88430502 80.14811707 193.32121277 C78.63126341 189.4190778 76.93076102 185.70873068 75.01530457 181.98918152 C74.15801645 180.27820734 73.39803659 178.51939339 72.64811707 176.75871277 C71.46444757 174.01259955 70.22362422 171.39346875 68.86686707 168.73527527 C65.1779135 161.39758934 61.83471206 153.90043275 58.45866394 146.41496277 C55.98721532 140.9998142 53.50710916 135.99877146 50.08561707 131.13371277 C49.33561707 128.25871277 49.33561707 128.25871277 49.08561707 126.13371277 C48.42561707 126.13371277 47.76561707 126.13371277 47.08561707 126.13371277 C44.65305949 122.74928484 43.2944224 119.16353824 41.88639832 115.28605652 C39.10409791 107.80777593 35.38101511 100.89402106 31.47624207 93.95402527 C30.08561707 91.13371277 30.08561707 91.13371277 30.08561707 88.13371277 C29.42561707 88.13371277 28.76561707 88.13371277 28.08561707 88.13371277 C25.4924584 82.48530363 22.93689568 76.82392852 20.47233582 71.11808777 C15.91071997 60.56825358 11.27874602 50.1981833 5.71452332 40.13761902 C4.36159655 37.64265336 3.1812903 35.18470174 2.08561707 32.57121277 C0.12063381 27.88548346 -2.50459167 23.57337255 -5.18586731 19.26823425 C-8.27106016 14.11911818 -9.51934237 9.64662121 -8.10188293 3.75871277 C-6.22808862 -0.38335887 -4.21405474 0.00779411 0 0 Z " fill="#FFFFFF" transform="translate(1228.9143829345703,268.8662872314453)"/>
<path d="M0 0 C14.96906803 -0.04681093 29.93813037 -0.08203329 44.90725613 -0.10362434 C51.85836172 -0.11391785 58.80942172 -0.12794116 65.76049805 -0.15087891 C72.47133573 -0.17301325 79.18211631 -0.1845763 85.89299202 -0.18975449 C88.45056973 -0.19344374 91.00814492 -0.20064789 93.56570244 -0.21146011 C97.15380278 -0.22602281 100.74170874 -0.22797591 104.32983398 -0.22705078 C105.38216217 -0.23424133 106.43449036 -0.24143188 107.51870728 -0.24884033 C117.05468967 -0.22231546 124.7040982 1.42466094 133.125 5.875 C133.78886719 6.21402344 134.45273438 6.55304688 135.13671875 6.90234375 C139.49681121 9.14638351 143.75710014 11.54242424 148 14 C148 14.66 148 15.32 148 16 C148.99 16.33 149.98 16.66 151 17 C151 17.66 151 18.32 151 19 C151.598125 19.268125 152.19625 19.53625 152.8125 19.8125 C154.99847854 20.99917406 156.41332594 22.09599113 158 24 C158 24.66 158 25.32 158 26 C158.99 26.33 159.98 26.66 161 27 C163.6875 29.375 163.6875 29.375 166 32 C166 32.99 166 33.98 166 35 C166.66 35 167.32 35 168 35 C168.12375 35.639375 168.2475 36.27875 168.375 36.9375 C168.58125 37.618125 168.7875 38.29875 169 39 C169.66 39.33 170.32 39.66 171 40 C171.33 40.99 171.66 41.98 172 43 C172.99 43.66 173.98 44.32 175 45 C175 45.66 175 46.32 175 47 C175.66 47 176.32 47 177 47 C177.391875 48.010625 177.78375 49.02125 178.1875 50.0625 C179.6610371 53.51937613 181.56026163 56.36258038 183.796875 59.3671875 C186.06535667 62.44584119 187.79137691 65.37413074 189 69 C189.99 69.33 190.98 69.66 192 70 C193.03013277 71.64821244 194.03114628 73.31503702 195 75 C195.66 75.33 196.32 75.66 197 76 C198.57548683 78.62581138 199 79.87099787 199 83 C199.99 83 200.98 83 202 83 C202.185625 83.78375 202.37125 84.5675 202.5625 85.375 C204.25832371 89.651425 206.63026515 92.94201319 209.34375 96.6328125 C211.68567537 99.97999829 213.14468163 103.00851428 214 107 C214.66 107 215.32 107 216 107 C219 111.38461538 219 111.38461538 219 114 C219.66 114 220.32 114 221 114 C221.95921722 115.74951568 222.91733817 117.49963244 223.875 119.25 C224.40867187 120.22453125 224.94234375 121.1990625 225.4921875 122.203125 C226.39524108 123.87821921 227.266521 125.57195018 228.0703125 127.296875 C228.88931265 129.18248994 228.88931265 129.18248994 231 130 C231 130.66 231 131.32 231 132 C231.66 132 232.32 132 233 132 C234.90119706 134.13884669 236.0073691 136.01863948 237.0625 138.6875 C237.76803846 141.15938605 237.76803846 141.15938605 240 142 C240.33 142.99 240.66 143.98 241 145 C241.66 145.33 242.32 145.66 243 146 C243 147.32 243 148.64 243 150 C243.66 150 244.32 150 245 150 C247.04169485 152.90548882 248 154.40142046 248 158 C248.66 158 249.32 158 250 158 C253 162.38461538 253 162.38461538 253 165 C253.66 165 254.32 165 255 165 C257.23834791 167.47431832 259.08426835 170.27167128 261 173 C261.52335937 173.74378906 262.04671875 174.48757813 262.5859375 175.25390625 C266.59387436 181.10305268 270.44125751 187.00880844 272 194 C272.66 194 273.32 194 274 194 C277 199.75 277 199.75 277 202 C277.66 202 278.32 202 279 202 C280.2890625 203.42578125 280.2890625 203.42578125 281.625 205.3125 C282.07101562 205.92738281 282.51703125 206.54226563 282.9765625 207.17578125 C284 209 284 209 284 212 C284.66 212 285.32 212 286 212 C288.29648649 214.5614657 289 215.47967572 289 219 C289.66 219 290.32 219 291 219 C291.4021875 220.175625 291.4021875 220.175625 291.8125 221.375 C292.84814432 224.28114923 292.84814432 224.28114923 296 226 C298.04413589 228.95264073 299 230.36672806 299 234 C299.66 234 300.32 234 301 234 C302.2890625 235.4609375 302.2890625 235.4609375 303.625 237.375 C304.07101562 238.00148438 304.51703125 238.62796875 304.9765625 239.2734375 C306 241 306 241 306 243 C306.66 243 307.32 243 308 243 C309.22264708 244.84722824 310.35379694 246.75547885 311.4375 248.6875 C312.03433594 249.74324219 312.63117188 250.79898438 313.24609375 251.88671875 C313.82488281 252.91410156 314.40367187 253.94148437 315 255 C316.54900837 257.68520032 317.80818989 259.80818989 320 262 C320 262.99 320 263.98 320 265 C320.99 265.33 321.98 265.66 323 266 C323 267.32 323 268.64 323 270 C323.62390625 270.23460937 324.2478125 270.46921875 324.890625 270.7109375 C327.60255941 272.36823075 327.88975997 273.6141599 328.75 276.625 C328.99234375 277.44226563 329.2346875 278.25953125 329.484375 279.1015625 C329.65453125 279.72804688 329.8246875 280.35453125 330 281 C330.66 281 331.32 281 332 281 C334.04169485 283.90548882 335 285.40142046 335 289 C335.66 289 336.32 289 337 289 C337.33 289.99 337.66 290.98 338 292 C338.66 292.33 339.32 292.66 340 293 C340 293.99 340 294.98 340 296 C340.66 296 341.32 296 342 296 C342.268125 296.804375 342.53625 297.60875 342.8125 298.4375 C343.204375 299.283125 343.59625 300.12875 344 301 C344.99 301.33 345.98 301.66 347 302 C347 302.99 347 303.98 347 305 C347.99 305.33 348.98 305.66 350 306 C352 309 352 309 352 313 C352.66 313 353.32 313 354 313 C357 317.38461538 357 317.38461538 357 320 C357.66 320 358.32 320 359 320 C359 320.99 359 321.98 359 323 C359.99 323.33 360.98 323.66 362 324 C364.74498064 327.93845049 369 334.06490439 369 339 C369.66 339 370.32 339 371 339 C371.30292969 339.56847656 371.60585938 340.13695312 371.91796875 340.72265625 C374.03361933 344.62196301 376.17469701 348.36516109 378.8125 351.9375 C381 355 381 355 381 357 C381.66 357 382.32 357 383 357 C384.2890625 358.4609375 384.2890625 358.4609375 385.625 360.375 C386.07101562 361.00148438 386.51703125 361.62796875 386.9765625 362.2734375 C388 364 388 364 388 366 C388.66 366 389.32 366 390 366 C390.33 367.65 390.66 369.3 391 371 C391.66 371 392.32 371 393 371 C395 374 395 374 395 378 C395.66 378 396.32 378 397 378 C397.33 379.65 397.66 381.3 398 383 C398.99 383 399.98 383 401 383 C401.66 385.31 402.32 387.62 403 390 C403.66 390 404.32 390 405 390 C405 390.66 405 391.32 405 392 C405.66 392 406.32 392 407 392 C407.33 393.65 407.66 395.3 408 397 C408.66 397 409.32 397 410 397 C410.33773438 397.63808594 410.67546875 398.27617188 411.0234375 398.93359375 C411.46945312 399.75988281 411.91546875 400.58617187 412.375 401.4375 C412.81585938 402.26121094 413.25671875 403.08492187 413.7109375 403.93359375 C414.83418559 406.13466578 414.83418559 406.13466578 417 407 C417.33333333 408.33333333 417.66666667 409.66666667 418 411 C418.66 411.33 419.32 411.66 420 412 C421.57548683 414.62581138 422 415.87099787 422 419 C422.99 419 423.98 419 425 419 C426.46484375 421.01171875 426.46484375 421.01171875 427.9375 423.6875 C430.05825073 427.41583215 432.29702268 430.66632798 435 434 C439 440.16551724 439 440.16551724 439 444 C439.99 444.33 440.98 444.66 442 445 C443.1875 448.0625 443.1875 448.0625 444 451 C444.66 451 445.32 451 446 451 C454.77188498 462.24600639 454.77188498 462.24600639 454 469 C452.12694376 470.87305624 449.42806973 470.12662254 446.93562317 470.13552856 C446.06346664 470.13350433 445.19131012 470.1314801 444.29272461 470.12939453 C443.37883972 470.13114685 442.46495483 470.13289917 441.52337646 470.13470459 C438.48301325 470.13912786 435.44270763 470.13618176 432.40234375 470.1328125 C430.29301441 470.13348581 428.18368515 470.13445606 426.07435608 470.13571167 C421.6414415 470.13718961 417.20854701 470.1350325 412.77563477 470.13037109 C407.10528159 470.12469811 401.43497599 470.12793671 395.7646246 470.13394356 C391.40220282 470.13756741 387.0397922 470.13640178 382.67737007 470.13381577 C380.58787594 470.13315027 378.49838079 470.13396169 376.40888786 470.13629532 C373.47691062 470.13884904 370.54500878 470.13494195 367.61303711 470.12939453 C366.32605675 470.13243088 366.32605675 470.13243088 365.01307678 470.13552856 C351.25442513 470.08756573 351.25442513 470.08756573 348.35546875 467.57421875 C347.90816406 467.05472656 347.46085937 466.53523438 347 466 C344.28174215 464.78133025 344.28174215 464.78133025 341.3125 463.8125 C340.31863281 463.46832031 339.32476562 463.12414062 338.30078125 462.76953125 C337.54152344 462.51558594 336.78226562 462.26164062 336 462 C336 461.34 336 460.68 336 460 C334.35 459.67 332.7 459.34 331 459 C331 458.34 331 457.68 331 457 C329.35 456.67 327.7 456.34 326 456 C326 455.01 326 454.02 326 453 C325.01 453 324.02 453 323 453 C323 452.34 323 451.68 323 451 C322.01 450.67 321.02 450.34 320 450 C316 445.54285714 316 445.54285714 316 443 C315.34 443 314.68 443 314 443 C312.375 441.625 312.375 441.625 311 440 C311 439.34 311 438.68 311 438 C310.360625 437.731875 309.72125 437.46375 309.0625 437.1875 C307 436 307 436 306 433 C305.34 433 304.68 433 304 433 C302.88671875 431.6105957 302.88671875 431.6105957 301.6875 429.67578125 C301.25179688 428.97646484 300.81609375 428.27714844 300.3671875 427.55664062 C299.91601562 426.81607422 299.46484375 426.07550781 299 425.3125 C298.54882812 424.59126953 298.09765625 423.87003906 297.6328125 423.12695312 C295.40070555 419.5113361 293.40083396 416.03535691 292 412 C291.34 412 290.68 412 290 412 C290 411.01 290 410.02 290 409 C289.01 408.67 288.02 408.34 287 408 C287 406.68 287 405.36 287 404 C286.34 404 285.68 404 285 404 C284.5875 403.0925 284.175 402.185 283.75 401.25 C282.20746125 397.99391002 282.20746125 397.99391002 279.875 395.9375 C277.66144189 393.65015662 277.34608319 392.11474874 277 389 C276.34 389 275.68 389 275 389 C275 387.68 275 386.36 275 385 C274.01 384.67 273.02 384.34 272 384 C270.68359375 382.40625 270.68359375 382.40625 269.4375 380.5 C267.68380605 377.74463406 267.68380605 377.74463406 265 376 C265 375.01 265 374.02 265 373 C264.34 373 263.68 373 263 373 C261.7109375 371.57421875 261.7109375 371.57421875 260.375 369.6875 C259.92898438 369.07261719 259.48296875 368.45773437 259.0234375 367.82421875 C258 366 258 366 258 363 C257.01 362.67 256.02 362.34 255 362 C253.9375 360.29296875 253.9375 360.29296875 253 358.1875 C251.5895868 355.15511162 250.04319592 352.65615469 248 350 C248 349.34 248 348.68 248 348 C247.34 348 246.68 348 246 348 C245.01 345.03 244.02 342.06 243 339 C242.34 339 241.68 339 241 339 C240.60167969 338.25234375 240.20335937 337.5046875 239.79296875 336.734375 C239.26316406 335.74953125 238.73335937 334.7646875 238.1875 333.75 C237.66542969 332.77546875 237.14335937 331.8009375 236.60546875 330.796875 C235.09244481 328.02207169 235.09244481 328.02207169 233.30078125 325.765625 C232 324 232 324 232 322 C231.01 321.67 230.02 321.34 229 321 C226.88514786 317.64111719 225.2516984 314.75509521 224 311 C223.01 310.67 222.02 310.34 221 310 C217 304.74285714 217 304.74285714 217 301 C216.34 301 215.68 301 215 301 C213.55859375 298.8125 213.55859375 298.8125 212 296 C208.91131804 290.72864945 205.86036582 285.75121947 202 281 C202 280.34 202 279.68 202 279 C201.34 279 200.68 279 200 279 C199.5978125 277.9171875 199.5978125 277.9171875 199.1875 276.8125 C198.05967316 273.95320276 198.05967316 273.95320276 196.375 271.3125 C195 269 195 269 195 267 C194.34 267 193.68 267 193 267 C190 262.61538462 190 262.61538462 190 260 C189.34 260 188.68 260 188 260 C188 259.01 188 258.02 188 257 C187.34 257 186.68 257 186 257 C183 251.25 183 251.25 183 249 C182.34 249 181.68 249 181 249 C180.67 247.68 180.34 246.36 180 245 C179.34 245 178.68 245 178 245 C176.7109375 243.35546875 176.7109375 243.35546875 175.375 241.1875 C174.92898437 240.47980469 174.48296875 239.77210938 174.0234375 239.04296875 C173 237 173 237 173 234 C172.34 234 171.68 234 171 234 C171 233.01 171 232.02 171 231 C170.34 231 169.68 231 169 231 C168.67 230.01 168.34 229.02 168 228 C167.34 227.67 166.68 227.34 166 227 C166 226.34 166 225.68 166 225 C165.34 225 164.68 225 164 225 C163.67 224.01 163.34 223.02 163 222 C162.34 221.67 161.68 221.34 161 221 C160.06283375 219.09219728 159.12826472 217.18304581 158.2109375 215.265625 C156.56263011 212.18169504 154.51851154 209.50939428 152.3671875 206.76171875 C149 202.42285714 149 202.42285714 149 199 C148.34 199 147.68 199 147 199 C146.38125 197.39125 146.38125 197.39125 145.75 195.75 C144.04587053 191.76298011 141.66226244 189.40652975 138.375 186.625 C137 185 137 185 136 181.875 C135.67 180.92625 135.34 179.9775 135 179 C134.01 178.67 133.02 178.34 132 178 C132 177.01 132 176.02 132 175 C131.34 175 130.68 175 130 175 C129.3490741 173.75264433 128.70448331 172.50198168 128.0625 171.25 C127.70285156 170.55390625 127.34320313 169.8578125 126.97265625 169.140625 C126.04441818 167.09775567 125.46833422 165.18884624 125 163 C124.34 163 123.68 163 123 163 C120.95830515 160.09451118 120 158.59857954 120 155 C119.01 154.67 118.02 154.34 117 154 C115.68359375 151.96875 115.68359375 151.96875 114.4375 149.5 C112.88380682 146.09741461 112.88380682 146.09741461 110 144 C108.47174487 141.64394001 107.13664889 139.28937413 105.9375 136.75 C105.11996415 134.81946715 105.11996415 134.81946715 103 134 C103 132.68 103 131.36 103 130 C102.34 130 101.68 130 101 130 C97.125 123.375 97.125 123.375 96 120 C95.34 120 94.68 120 94 120 C93.34 118.68 92.68 117.36 92 116 C91.67 232.82 91.34 349.64 91 470 C61.3 470 31.6 470 1 470 C-0.71427912 468.28572088 -0.12339132 466.11083075 -0.13100848 463.8245599 C-0.12838146 463.0747489 -0.12575445 462.3249379 -0.12304783 461.55240536 C-0.12420167 460.75940425 -0.12535552 459.96640315 -0.12654433 459.14937171 C-0.12921835 456.45779132 -0.12468242 453.76626921 -0.12025452 451.07469177 C-0.12069006 449.1392972 -0.12156465 447.20390269 -0.12284368 445.26850849 C-0.12509199 439.92342227 -0.1210628 434.57835589 -0.11606562 429.23327219 C-0.1117661 423.47931645 -0.11320719 417.72536192 -0.1139679 411.97140503 C-0.11449345 401.99339468 -0.11134339 392.01539084 -0.10573006 382.03738213 C-0.09761928 367.6106746 -0.09500027 353.18397024 -0.09374207 338.75726069 C-0.09155088 315.35355286 -0.08489756 291.94984851 -0.07543945 268.54614258 C-0.0662598 245.80525735 -0.05917385 223.06437304 -0.05493164 200.32348633 C-0.05480011 199.62290563 -0.05466859 198.92232494 -0.05453308 198.20051452 C-0.05321459 191.16519958 -0.05193877 184.12988464 -0.05069422 177.09456969 C-0.04815779 162.76194472 -0.04533653 148.42931982 -0.04234314 134.09669495 C-0.04206841 132.7802562 -0.04179369 131.46381745 -0.04151063 130.10748661 C-0.03233495 86.73832304 -0.01660079 43.36916128 0 0 Z " fill="#FFFFFF" transform="translate(43,259)"/>
<path d="M0 0 C3.0625 0.375 3.0625 0.375 4.6171875 2.06640625 C6.17109089 4.54845194 7.20248996 6.95338534 8.25 9.6875 C11.30220331 17.23040726 15.14480606 24.2570499 19.0625 31.375 C19.48273437 32.15230469 19.90296875 32.92960937 20.3359375 33.73046875 C23.12694273 38.84731167 26.10194879 43.85521616 29.0625 48.875 C35.4125234 59.65646935 35.4125234 59.65646935 37.1875 62.75 C37.74824219 63.72066406 37.74824219 63.72066406 38.3203125 64.7109375 C39.0625 66.375 39.0625 66.375 39.0625 69.375 C39.7225 69.375 40.3825 69.375 41.0625 69.375 C41.8148411 70.70701375 42.56421276 72.04070468 43.3125 73.375 C43.73015625 74.1175 44.1478125 74.86 44.578125 75.625 C46.4904158 79.16777032 48.27737536 82.76685892 50.0625 86.375 C55.39899632 97.20965367 55.39899632 97.20965367 61.0625 107.875 C64.57577228 114.22737609 67.77440876 120.7291472 70.99511719 127.23291016 C72.10309725 129.45647307 73.22547687 131.67227469 74.3515625 133.88671875 C74.72168457 134.61737549 75.09180664 135.34803223 75.47314453 136.10083008 C76.18728089 137.50973692 76.90430375 138.91718521 77.62451172 140.32299805 C80.0625 145.15046048 80.0625 145.15046048 80.0625 147.375 C80.7225 147.375 81.3825 147.375 82.0625 147.375 C82.60777344 148.39207031 82.60777344 148.39207031 83.1640625 149.4296875 C85.70669606 154.13681937 88.2837652 158.80258453 91.0625 163.375 C95.33434279 170.42018575 99.24324952 177.64706333 102.87890625 185.0390625 C104.49123195 188.22114424 106.18634457 191.35802938 107.875 194.5 C110.50617559 199.39689323 113.0477774 204.32251214 115.5 209.3125 C117.96348394 214.29520281 120.5992403 219.12325415 123.375 223.9375 C127.50336643 231.09813557 131.05145378 238.47903974 134.43676758 246.01782227 C136.72770201 251.00600058 139.28345373 255.20668178 142.67700195 259.51660156 C144.71080199 262.24458146 146.11549302 265.17865675 147.5625 268.25 C149.59233483 272.47722412 151.70851686 276.57705787 154.1875 280.5625 C156.23624651 283.87617179 157.93708562 287.18126064 159.5 290.75 C162.57524448 297.75638225 166.50138089 304.24306117 170.52734375 310.73828125 C172.51158651 314.14633179 174.25423492 317.65274137 176 321.1875 C176.33451172 321.86103516 176.66902344 322.53457031 177.01367188 323.22851562 C179.7916915 328.82202335 179.7916915 328.82202335 181.00537109 331.30029297 C183.77514313 336.91799889 186.78654013 342.39203952 189.8125 347.875 C193.8651389 355.24893739 197.76410691 362.66767268 201.46679688 370.22265625 C203.43226535 374.20366884 205.55941034 377.96848405 207.99609375 381.67578125 C209.0946085 383.42616189 209.98667846 385.19740932 210.875 387.0625 C212.60715788 390.63767387 214.63421072 393.950653 216.75 397.3125 C221.61427148 405.10628582 225.87564193 413.20102591 230.0625 421.375 C230.43133301 422.04845459 230.80016602 422.72190918 231.18017578 423.41577148 C232.0625 425.375 232.0625 425.375 232.0625 428.375 C232.7225 428.375 233.3825 428.375 234.0625 428.375 C234.48660156 429.37917969 234.91070313 430.38335938 235.34765625 431.41796875 C239.55358442 441.26608421 243.95526556 450.96695367 249.75 460.0078125 C251.53902012 463.23443807 251.33631024 465.74701436 251.0625 469.375 C250.7325 470.035 250.4025 470.695 250.0625 471.375 C232.73218743 471.9148508 215.400127 472.21043098 198.0625 472.375 C197.23313683 472.3830088 196.40377365 472.39101761 195.54927826 472.3992691 C184.42494692 472.50335356 173.30192964 472.55450404 162.17711926 472.51772404 C157.46055041 472.50239636 152.74513302 472.50192809 148.02865601 472.53860474 C143.52406909 472.57257902 139.02160409 472.56277417 134.51710701 472.5205822 C132.8395653 472.51215027 131.16186807 472.5190467 129.48446465 472.5421772 C116.65899355 472.7039121 116.65899355 472.7039121 112.77949524 469.47463989 C111.19451685 467.16117675 110.09373973 464.97673277 109.0625 462.375 C108.31021118 461.00142334 108.31021118 461.00142334 107.54272461 459.60009766 C107.00917358 458.45613525 107.00917358 458.45613525 106.46484375 457.2890625 C106.05814453 456.42603516 105.65144531 455.56300781 105.23242188 454.67382812 C104.82572266 453.79146484 104.41902344 452.90910156 104 452 C103.56880859 451.07896484 103.13761719 450.15792969 102.69335938 449.20898438 C101.47517732 446.60122702 100.26701253 443.98909345 99.0625 441.375 C98.61414795 440.40771973 98.61414795 440.40771973 98.15673828 439.42089844 C92.0625 426.26836158 92.0625 426.26836158 92.0625 422.375 C91.4025 422.375 90.7425 422.375 90.0625 422.375 C89.84335938 421.79234375 89.62421875 421.2096875 89.3984375 420.609375 C86.2605896 412.49689017 82.37270203 404.83996123 78.37890625 397.12109375 C77.84136719 396.07050781 77.30382813 395.01992188 76.75 393.9375 C76.25886719 392.99003906 75.76773438 392.04257812 75.26171875 391.06640625 C74.10696656 388.47479628 73.49358976 386.16947597 73.0625 383.375 C72.0725 383.045 71.0825 382.715 70.0625 382.375 C69.32826708 380.84117218 68.61635033 379.2940994 67.99560547 377.7109375 C65.91817665 372.51029937 63.4656569 367.46115335 61.125 362.375 C60.59970703 361.22515625 60.07441406 360.0753125 59.53320312 358.890625 C56.33642165 351.92197754 56.33642165 351.92197754 52.68359375 345.1875 C51.0625 342.375 51.0625 342.375 51.0625 340.375 C50.4025 340.375 49.7425 340.375 49.0625 340.375 C48.670625 339.116875 48.27875 337.85875 47.875 336.5625 C46.0077545 330.96948896 43.56470999 325.70734495 41.0625 320.375 C40.14546511 318.37516881 39.22881705 316.3751602 38.3125 314.375 C35.70523159 308.74167913 33.07924744 303.11723492 30.4375 297.5 C30.0652832 296.70335937 29.69306641 295.90671875 29.30957031 295.0859375 C27.08878417 290.37984491 24.67455287 285.87480286 22.0625 281.375 C21.38117549 279.71427151 20.71507873 278.047233 20.0625 276.375 C19.1111647 274.3951941 18.12342436 272.43694002 17.125 270.48046875 C16.43761398 269.11833248 15.7694826 267.74623351 15.125 266.36328125 C13.36617678 262.63311034 11.44952672 259.48198343 8.875 256.25 C6.3368116 253.01492863 5.27259458 250.57689155 5.0625 246.375 C4.4025 246.375 3.7425 246.375 3.0625 246.375 C2.4025 243.075 1.7425 239.775 1.0625 236.375 C0.4025 236.375 -0.2575 236.375 -0.9375 236.375 C-1.16824219 237.17550781 -1.39898438 237.97601563 -1.63671875 238.80078125 C-3.27439757 243.30070954 -5.47170217 247.3592968 -7.75 251.5625 C-11.00656896 257.64786088 -14.09222908 263.73547854 -16.875 270.0546875 C-18.66216996 273.9575513 -20.82406294 277.64202694 -22.9375 281.375 C-27.85686574 290.13231918 -32.12541237 298.94479544 -35.93237305 308.2421875 C-38.67096106 314.88183882 -41.79241195 321.26183428 -45.0546875 327.65625 C-48.68901824 334.78441854 -52.07102034 342.02835629 -54.9375 349.5 C-56.75245997 354.17029449 -59.09401221 358.44777746 -61.54296875 362.8125 C-63.24004798 365.9309425 -64.61993211 369.08108028 -65.9375 372.375 C-66.5975 372.375 -67.2575 372.375 -67.9375 372.375 C-68.0921875 373.2103125 -68.0921875 373.2103125 -68.25 374.0625 C-68.9375 376.375 -68.9375 376.375 -70.3125 378.625 C-71.95355202 381.40216496 -72.98395038 384.19464394 -74.09423828 387.21240234 C-75.41646076 390.60332497 -77.03550489 393.8224058 -78.6875 397.0625 C-79.03530518 397.75311523 -79.38311035 398.44373047 -79.74145508 399.15527344 C-81.9549086 403.524871 -84.26447508 407.83266695 -86.625 412.125 C-90.41255462 419.09891009 -93.40409959 426.27146621 -96.1796875 433.69921875 C-98.27118923 439.29171251 -100.38945607 444.62395381 -103.4140625 449.77734375 C-104.69504104 451.96157639 -105.92905856 454.16012885 -107.1484375 456.37890625 C-107.54514648 457.09715576 -107.94185547 457.81540527 -108.35058594 458.55541992 C-109.14578707 459.99540038 -109.938202 461.43692372 -110.72753906 462.88012695 C-111.0984668 463.54616943 -111.46939453 464.21221191 -111.8515625 464.8984375 C-112.1810791 465.49575684 -112.5105957 466.09307617 -112.85009766 466.70849609 C-114.1511852 468.70248432 -115.0081257 469.92921652 -116.9375 471.375 C-119.5113373 471.6903391 -121.84968359 471.82276771 -124.42675781 471.82324219 C-125.19133427 471.83500897 -125.95591072 471.84677576 -126.74365616 471.85889912 C-129.29269668 471.89428605 -131.84138218 471.90825099 -134.390625 471.921875 C-136.18853006 471.94178139 -137.98642275 471.96283474 -139.78430176 471.98497009 C-144.59322294 472.03980886 -149.40209467 472.0749918 -154.21122742 472.10506821 C-157.17671536 472.12492778 -160.14211219 472.1499951 -163.10754395 472.1769104 C-185.96834554 472.38331938 -208.82885142 472.51711045 -231.6875 472.0625 C-233.13268005 472.03718201 -233.13268005 472.03718201 -234.60705566 472.01135254 C-237.23332348 471.96139045 -239.85864347 471.89669531 -242.484375 471.82421875 C-243.22909058 471.80947006 -243.97380615 471.79472137 -244.74108887 471.77952576 C-249.70453488 471.60796512 -249.70453488 471.60796512 -251.9375 469.375 C-253.00975266 463.2286946 -249.81365238 458.68186709 -246.9375 453.5 C-245.92459883 451.62303345 -244.91289113 449.74542237 -243.90234375 447.8671875 C-243.39944824 446.9400293 -242.89655273 446.01287109 -242.37841797 445.05761719 C-240.34972059 441.28070651 -238.41015367 437.46295953 -236.5 433.625 C-236.17773438 432.97869629 -235.85546875 432.33239258 -235.5234375 431.66650391 C-233.19172673 426.95757957 -231.00715907 422.2042045 -228.9375 417.375 C-228.2775 417.375 -227.6175 417.375 -226.9375 417.375 C-226.855 416.715 -226.7725 416.055 -226.6875 415.375 C-225.21561821 409.48747284 -222.26216218 404.73099086 -218.6875 399.875 C-215.28593543 395.14019508 -212.73319064 390.14367751 -210.21118164 384.91235352 C-207.03308781 378.39258191 -203.42063859 372.160815 -199.70605469 365.93383789 C-197.0874467 361.51032169 -194.8463245 357.15023206 -192.9375 352.375 C-192.2775 352.375 -191.6175 352.375 -190.9375 352.375 C-190.84275391 351.1684375 -190.84275391 351.1684375 -190.74609375 349.9375 C-189.67008718 345.19683335 -187.4493223 341.53850439 -185 337.375 C-182.13632266 332.46583885 -179.4845843 327.89146057 -177.9375 322.375 C-177.2775 322.375 -176.6175 322.375 -175.9375 322.375 C-175.73125 321.59125 -175.525 320.8075 -175.3125 320 C-174.16497147 316.9746975 -173.00059015 314.71562328 -171.3125 312 C-168.62304789 307.6524876 -166.30647809 303.21085335 -164.0625 298.625 C-161.46531244 293.32383982 -158.73248324 288.15692677 -155.75 283.0625 C-152.40735682 277.32001043 -149.5328365 271.48901386 -146.9375 265.375 C-146.2775 265.375 -145.6175 265.375 -144.9375 265.375 C-144.855 264.694375 -144.7725 264.01375 -144.6875 263.3125 C-143.71417472 259.5003093 -141.97942545 256.73429671 -139.9375 253.375 C-139.2775 253.375 -138.6175 253.375 -137.9375 253.375 C-137.68226562 252.71113281 -137.42703125 252.04726563 -137.1640625 251.36328125 C-133.19487739 241.69313281 -128.44525731 232.30382524 -123.8125 222.9375 C-123.51263184 222.32479248 -123.21276367 221.71208496 -122.90380859 221.08081055 C-121.11587363 217.49775823 -119.16873391 214.06124374 -117.0859375 210.640625 C-113.7065999 205.07219344 -110.68210895 199.34480396 -107.6875 193.5625 C-107.15898438 192.55251953 -106.63046875 191.54253906 -106.0859375 190.50195312 C-103.83522123 186.17475116 -101.72958265 181.91300058 -99.9375 177.375 C-98.92122238 175.42406292 -97.87883262 173.48653494 -96.8125 171.5625 C-96.27367187 170.58667969 -95.73484375 169.61085938 -95.1796875 168.60546875 C-94.76976562 167.86941406 -94.35984375 167.13335937 -93.9375 166.375 C-93.2775 166.375 -92.6175 166.375 -91.9375 166.375 C-90.44609979 162.75302806 -89.1500738 159.09933382 -87.9375 155.375 C-87.2775 155.375 -86.6175 155.375 -85.9375 155.375 C-85.73125 154.570625 -85.525 153.76625 -85.3125 152.9375 C-84.15424152 149.93655757 -83.12635223 148.06798101 -81.3125 145.5 C-77.17137604 139.49939076 -74.13087705 132.98776031 -70.94775391 126.44824219 C-69.39881076 123.26950241 -67.82740471 120.10219395 -66.25 116.9375 C-65.93885254 116.31069336 -65.62770508 115.68388672 -65.30712891 115.03808594 C-63.10718251 110.63392348 -60.83808204 106.26941091 -58.54296875 101.9140625 C-57.94895264 100.78411865 -57.35493652 99.6541748 -56.74291992 98.48999023 C-55.55186513 96.22883835 -54.35552126 93.97046352 -53.15356445 91.71508789 C-52.60788818 90.67860107 -52.06221191 89.64211426 -51.5 88.57421875 C-51.00628906 87.64440186 -50.51257812 86.71458496 -50.00390625 85.7565918 C-48.73316414 83.35356673 -48.73316414 83.35356673 -48.9375 80.375 C-47.96101983 79.35202078 -46.95618662 78.35595748 -45.9375 77.375 C-43.96842125 74.42138188 -42.58592423 71.87649082 -41.9375 68.375 C-41.2775 68.375 -40.6175 68.375 -39.9375 68.375 C-39.5971875 67.385 -39.5971875 67.385 -39.25 66.375 C-37.85980005 63.19740012 -36.159965 60.45960816 -34.29296875 57.546875 C-32.46993455 54.62581731 -30.83940301 51.61203216 -29.19140625 48.58984375 C-27.99559361 46.47761394 -26.70869931 44.4645598 -25.375 42.4375 C-23.55533866 39.5812514 -22.25061647 36.79499585 -21.0625 33.625 C-19.15793992 28.60736381 -16.57737256 24.20544584 -13.8125 19.6171875 C-11.10214368 14.9305297 -8.76917317 10.08551692 -6.41796875 5.2109375 C-3.96167734 0.50574604 -3.96167734 0.50574604 0 0 Z " fill="#FFFFFF" transform="translate(2112.9375,267.625)"/>
<path d="M0 0 C54.45 0 108.9 0 165 0 C165 116.49 165 232.98 165 353 C161.43568143 349.43568143 159.40609567 347.37278644 157 343.3125 C153.18770615 337.12699011 148.93577176 331.30026701 144.61914062 325.45825195 C141.42341183 321.10048346 138.61682652 316.72697819 136 312 C135.4225 311.236875 134.845 310.47375 134.25 309.6875 C133 308 133 308 133 306 C132.34 306 131.68 306 131 306 C129.59777737 304.0276429 128.32168075 302.06182284 127.0625 300 C123.7210752 294.66301154 120.27928801 289.42186504 116.6875 284.25 C112.73076299 278.53927424 108.84105062 272.78917592 105 267 C100.68253483 260.49553106 96.29988535 254.04089033 91.86328125 247.6171875 C88.55113807 242.81698 85.30883194 237.97393226 82.0859375 233.11328125 C79.63081236 229.448984 77.13054611 225.8174186 74.625 222.1875 C71.03694031 216.98827302 67.49143949 211.76459347 64 206.5 C60.20831516 200.78599137 56.35193399 195.12043521 52.45922852 189.47485352 C42.91380921 175.62876903 33.38599623 161.76459694 24.13525391 147.71923828 C23.36747972 146.55651445 22.59621948 145.39608624 21.82177734 144.23779297 C5.60121082 119.9704353 -0.35919397 97.39007696 -0.1953125 68.359375 C-0.19236541 66.60433072 -0.19032908 64.84928468 -0.18920898 63.09423828 C-0.17879883 56.64613174 -0.15087652 50.19806303 -0.125 43.75 C-0.08375 29.3125 -0.0425 14.875 0 0 Z " fill="#F7CB06" transform="translate(332,258)"/>
</svg>
